<?xml version="1.0" standalone="no"?>
<!DOCTYPE svg PUBLIC "-//W3C//DTD SVG 20010904//EN"
 "http://www.w3.org/TR/2001/REC-SVG-20010904/DTD/svg10.dtd">
<svg version="1.0" xmlns="http://www.w3.org/2000/svg"
 width="228.000000pt" height="228.000000pt" viewBox="0 0 228.000000 228.000000"
 preserveAspectRatio="xMidYMid meet">
<metadata>
Created by potrace 1.14, written by Peter Selinger 2001-2017
</metadata>
<g transform="translate(0.000000,228.000000) scale(0.100000,-0.100000)"
fill="#000000" stroke="none">
<path d="M1643 2238 c-17 -18 -68 -106 -112 -195 -45 -90 -84 -163 -87 -163
-7 0 -304 303 -332 340 -28 36 -51 38 -80 7 -21 -22 -22 -31 -22 -250 0 -124
-4 -228 -9 -231 -4 -3 -21 -1 -37 4 -43 13 -163 47 -214 60 -25 6 -74 20 -110
30 -36 10 -85 24 -110 30 -25 6 -59 16 -76 21 -17 5 -36 9 -42 9 -16 0 -62
-48 -62 -66 0 -8 50 -113 110 -235 61 -121 108 -224 105 -229 -4 -6 -101 -10
-235 -10 -223 0 -230 -1 -250 -22 -11 -12 -20 -30 -20 -39 0 -10 88 -106 195
-214 107 -108 195 -200 195 -205 0 -6 -87 -53 -192 -106 -196 -98 -238 -125
-238 -154 0 -39 83 -87 608 -349 l542 -271 548 2 547 3 3 1032 2 1032 -25 25
c-14 15 -30 26 -34 26 -23 0 -56 -50 -130 -198 -45 -89 -86 -162 -91 -162 -5
0 -60 100 -121 223 -118 236 -150 287 -178 287 -9 0 -31 -15 -48 -32z"/>
</g>
</svg>
